<?xml version="1.0" encoding="utf-8"?>
<!-- Generator: Adobe Illustrator 16.0.0, SVG Export Plug-In . SVG Version: 6.00 Build 0)  -->
<!DOCTYPE svg PUBLIC "-//W3C//DTD SVG 1.1//EN" "http://www.w3.org/Graphics/SVG/1.1/DTD/svg11.dtd">
<svg version="1.1" id="Layer_1" xmlns="http://www.w3.org/2000/svg" xmlns:xlink="http://www.w3.org/1999/xlink" x="0px" y="0px"
	 width="600px" height="600px" viewBox="0 0 600 600" enable-background="new 0 0 600 600" xml:space="preserve">
<g>
	<g>
		<path fill="#FCBA66" d="M487.956,293.664c-0.076-0.92-0.158-1.903-0.244-2.946c-0.621-8.329-1.992-20.628-6.385-35.625
			c-0.56-1.868-1.134-3.786-1.723-5.753c-0.683-1.937-1.382-3.921-2.099-5.953c-0.672-2.047-1.542-4.074-2.392-6.159
			c-0.866-2.078-1.672-4.234-2.713-6.341c-3.846-8.564-8.832-17.446-14.932-26.377c-12.177-17.831-29.267-35.847-51.547-50.147
			c-11.129-7.131-23.52-13.229-36.836-18.103c-1.643-0.668-3.364-1.141-5.058-1.71c-1.703-0.539-3.4-1.123-5.127-1.633
			c-1.739-0.467-3.484-0.937-5.237-1.408c-0.876-0.236-1.753-0.472-2.633-0.709c-0.885-0.211-1.78-0.39-2.673-0.587
			c-1.785-0.391-3.577-0.783-5.375-1.177c-1.799-0.389-3.633-0.639-5.456-0.967l-2.746-0.467l-1.377-0.234l-1.389-0.165
			c-1.854-0.219-3.714-0.439-5.58-0.661c-1.872-0.265-3.726-0.344-5.59-0.477c-1.87-0.119-3.723-0.269-5.62-0.369
			c-1.95-0.033-3.907-0.066-5.87-0.1l-2.948-0.05l-2.778,0.075c-1.926,0.056-3.857,0.113-5.795,0.169
			c-1.936,0.079-3.87,0.291-5.814,0.429c-3.895,0.222-7.77,0.837-11.679,1.329c-7.772,1.261-15.601,2.806-23.303,5.116
			c-3.893,1.011-7.676,2.439-11.527,3.709c-1.9,0.706-3.779,1.483-5.677,2.222l-2.844,1.125l-2.792,1.266
			c-14.996,6.55-29.286,15.397-42.263,26.162c-1.598,1.374-3.199,2.75-4.802,4.129c-1.584,1.4-3.086,2.896-4.637,4.341
			c-0.767,0.732-1.549,1.45-2.306,2.195l-2.214,2.293l-2.219,2.296c-0.743,0.764-1.49,1.524-2.178,2.34
			c-1.407,1.603-2.816,3.208-4.228,4.814c-1.397,1.619-2.683,3.333-4.035,4.998l-1.999,2.522l-1.884,2.613l-1.887,2.616
			c-0.633,0.87-1.268,1.739-1.837,2.654c-1.175,1.806-2.351,3.613-3.528,5.422c-1.157,1.822-2.195,3.718-3.302,5.577
			c-0.54,0.937-1.104,1.861-1.626,2.809l-1.499,2.882l-1.502,2.884c-0.508,0.958-1.007,1.921-1.442,2.917l-2.722,5.922
			c-0.877,1.989-1.635,4.03-2.461,6.044c-0.398,1.013-0.826,2.016-1.201,3.038l-1.064,3.091l-1.066,3.093
			c-0.362,1.029-0.718,2.061-1.001,3.116l-1.825,6.293c-0.589,2.104-1.029,4.249-1.553,6.373l-0.752,3.195l-0.594,3.229
			c-0.374,2.157-0.845,4.3-1.142,6.471l-0.865,6.52c-0.167,1.089-0.259,2.171-0.338,3.252l-0.266,3.247l-0.269,3.248
			c-0.103,1.075-0.087,2.226-0.137,3.335l-0.207,6.716l0.137,6.496c0.038,1.098,0.01,2.198,0.101,3.293l0.235,3.286l0.234,3.285
			c0.068,1.097,0.151,2.191,0.306,3.278l0.799,6.538c0.274,2.178,0.724,4.328,1.077,6.493l0.562,3.242l0.721,3.209
			c0.502,2.134,0.922,4.289,1.49,6.405l1.765,6.33c0.273,1.061,0.62,2.1,0.972,3.136l1.038,3.113l1.036,3.114
			c0.367,1.029,0.785,2.04,1.174,3.061c0.808,2.031,1.548,4.089,2.409,6.095l2.668,5.978c0.425,1.005,0.916,1.979,1.415,2.947
			l1.476,2.915l1.474,2.914c0.514,0.959,1.069,1.895,1.602,2.843c1.09,1.881,2.114,3.8,3.256,5.646
			c1.163,1.834,2.325,3.666,3.486,5.496c0.563,0.927,1.192,1.809,1.818,2.691l1.869,2.655l1.866,2.652l1.983,2.563
			c1.341,1.691,2.617,3.434,4.006,5.08c1.403,1.636,2.804,3.269,4.204,4.9c0.684,0.83,1.428,1.605,2.167,2.384l2.21,2.34
			l2.207,2.338c0.756,0.758,1.539,1.488,2.306,2.233c1.552,1.472,3.055,2.993,4.642,4.418c1.606,1.405,3.209,2.808,4.811,4.208
			c13.006,10.972,27.368,20.041,42.487,26.789l2.82,1.292l2.873,1.15c1.917,0.756,3.816,1.549,5.737,2.271
			c3.892,1.302,7.716,2.761,11.652,3.802c7.786,2.379,15.712,3.953,23.583,5.229c3.955,0.502,7.892,1.126,11.798,1.353
			c1.961,0.142,3.887,0.355,5.864,0.438c1.986,0.06,3.966,0.119,5.94,0.178l1.479,0.045l0.739,0.021l0.369,0.012
			c0.136,0.007,0.136-0.003,0.309-0.003l2.913-0.051c1.939-0.033,3.872-0.066,5.8-0.1c1.924-0.101,3.84-0.253,5.751-0.376
			c1.91-0.137,3.82-0.223,5.705-0.489c1.89-0.225,3.772-0.449,5.649-0.672l1.407-0.167l1.394-0.238l2.78-0.474
			c1.847-0.334,3.703-0.589,5.524-0.982c1.819-0.405,3.633-0.809,5.438-1.21c0.902-0.205,1.808-0.392,2.702-0.611
			c0.889-0.244,1.776-0.488,2.661-0.732c1.771-0.487,3.535-0.974,5.293-1.457c1.744-0.526,3.458-1.127,5.179-1.683
			c1.71-0.587,3.448-1.077,5.106-1.762c13.452-4.994,25.906-11.305,37.083-18.592c11.181-7.288,21.041-15.567,29.611-24.223
			c8.552-8.684,15.79-17.772,21.829-26.816c12.175-18.083,19.234-36.006,23.411-51.04c4.243-15.072,5.525-27.4,6.066-35.728
			c0.078-1.044,0.15-2.026,0.219-2.946c0.074-0.92,0.057-1.788,0.087-2.587c0.037-1.601,0.069-2.947,0.095-4.032
			c0.05-2.133,0.075-3.245,0.076-3.282c-0.001-0.024-0.037-1.136-0.105-3.275c-0.035-1.081-0.078-2.424-0.129-4.021
			C488.028,295.447,488.038,294.584,487.956,293.664z M349.512,301.521c0.003,0.003-0.012,0.309-0.011,0.22l-0.078,0.686
			l-0.155,1.366c-0.126,0.921-0.14,1.771-0.404,2.764c-0.217,0.953-0.432,1.9-0.646,2.841c-0.204,0.94-0.591,1.776-0.875,2.654
			c-0.536,1.76-1.41,3.349-2.17,4.935c-0.175,0.404-0.395,0.783-0.633,1.15l-0.683,1.107c-0.471,0.723-0.861,1.484-1.385,2.148
			c-0.515,0.667-1.024,1.327-1.529,1.981c-0.255,0.323-0.495,0.655-0.759,0.965l-0.836,0.884
			c-4.378,4.738-9.292,8.039-13.891,10.313c-4.616,2.261-8.913,3.614-12.518,4.295c-0.901,0.173-1.745,0.385-2.553,0.503
			c-0.494,0.063-0.963,0.122-1.418,0.18c-0.456,0.064-0.916,0.12-1.376,0.173c-0.508,0.063-0.995,0.125-1.442,0.181
			c-0.302,0.012-0.59,0.022-0.864,0.033c-1.25,0.089-2.511,0.146-3.787,0.146c-1.277,0-2.538-0.057-3.789-0.146
			c-0.273-0.011-0.561-0.021-0.862-0.033c-0.444-0.056-0.93-0.116-1.435-0.18c-0.465-0.054-0.929-0.109-1.389-0.175
			c-0.454-0.058-0.921-0.116-1.413-0.179c-0.808-0.118-1.651-0.331-2.553-0.504c-3.605-0.68-7.9-2.036-12.516-4.297
			c-4.598-2.276-9.508-5.58-13.883-10.317c-4.39-4.695-7.97-11.08-9.492-18.569c-0.261-0.925-0.286-1.888-0.414-2.849l-0.158-1.452
			l-0.079-0.732l0-0.827c0.004-0.925,0.008-1.855,0.012-2.792c0.005-0.237-0.006-0.462,0.012-0.709l0.09-0.772l0.189-1.557
			c0.173-2.145,0.792-4.067,1.265-6.12c0.73-1.944,1.343-3.996,2.393-5.854c0.886-1.955,2.12-3.714,3.293-5.548
			c1.344-1.688,2.628-3.487,4.216-5.006c1.472-1.653,3.225-3,4.929-4.437c0.887-0.667,1.818-1.278,2.734-1.92
			c0.463-0.312,0.914-0.65,1.397-0.93l1.466-0.817c7.775-4.533,16.929-6.646,25.985-6.777l3.334,0.153l1.572,0.079l1.757,0.227
			c1.166,0.159,2.348,0.302,3.496,0.492l3.314,0.775c1.11,0.227,2.183,0.601,3.256,0.959c1.066,0.379,2.163,0.661,3.195,1.126
			c1.032,0.457,2.063,0.912,3.093,1.367c1.031,0.447,1.986,1.06,2.976,1.583l1.466,0.817c0.483,0.281,0.936,0.618,1.401,0.925
			c0.916,0.643,1.848,1.253,2.734,1.921c1.707,1.435,3.455,2.79,4.936,4.435c1.589,1.521,2.874,3.321,4.218,5.01
			c1.174,1.835,2.407,3.596,3.294,5.552c1.05,1.859,1.672,3.908,2.397,5.856c0.473,2.044,1.097,4.014,1.253,6.058l0.187,1.508
			c0.072,0.5,0.123,0.999,0.107,1.502c0.008,1,0.016,1.995,0.022,2.983l0.002,0.368l0.001,0.185V301.521z"/>
	</g>
</g>
<g>
	<g>
		<path fill="#FCBA66" d="M467.812,396.541c0.641-1.109,1.272-2.211,1.821-3.343c1.139-2.245,2.257-4.448,3.354-6.611
			c0.992-2.213,1.965-4.384,2.919-6.511c0.493-1.058,0.914-2.132,1.319-3.2c0.413-1.064,0.821-2.118,1.226-3.16
			c0.404-1.043,0.805-2.073,1.2-3.093c0.349-1.036,0.693-2.062,1.034-3.074c0.668-2.03,1.354-4.004,1.963-5.948
			c0.55-1.962,1.085-3.875,1.606-5.738c4.079-14.949,5.282-27.154,5.795-35.396c0.074-1.032,0.145-2.004,0.21-2.915
			c0.061-0.911,0.051-1.771,0.078-2.562c0.035-1.584,0.065-2.917,0.09-3.99c0.048-2.108,0.072-3.209,0.073-3.248
			c-0.001-0.027-0.037-1.127-0.105-3.241c-0.034-1.07-0.077-2.399-0.129-3.979c-0.034-0.789-0.033-1.643-0.103-2.554
			c-0.075-0.911-0.154-1.884-0.239-2.916c-0.601-8.243-1.901-20.417-6.147-35.284c-0.542-1.852-1.098-3.753-1.669-5.704
			c-0.629-1.931-1.336-3.891-2.025-5.906c-0.351-1.005-0.706-2.022-1.065-3.05c-0.406-1.011-0.817-2.034-1.232-3.068
			c-0.414-1.033-0.834-2.078-1.258-3.134c-0.416-1.059-0.847-2.124-1.351-3.171c-0.976-2.106-1.971-4.255-2.985-6.446
			c-1.119-2.138-2.259-4.317-3.42-6.536c-0.561-1.119-1.203-2.207-1.854-3.302c-0.646-1.098-1.296-2.205-1.952-3.322
			c-1.263-2.262-2.763-4.431-4.215-6.677c-11.793-17.809-28.468-35.808-50.221-50.298c-10.883-7.208-23.059-13.349-36.144-18.29
			c-0.819-0.305-1.625-0.653-2.46-0.924c-0.835-0.274-1.671-0.549-2.509-0.824c-1.674-0.551-3.354-1.104-5.042-1.66
			c-1.712-0.471-3.432-0.943-5.157-1.418c-1.727-0.472-3.45-0.976-5.221-1.324c-1.759-0.392-3.524-0.785-5.296-1.18
			c-0.882-0.218-1.776-0.38-2.676-0.526l-2.697-0.466c-1.806-0.287-3.6-0.68-5.43-0.885c-1.827-0.22-3.66-0.44-5.5-0.662
			c-1.846-0.263-3.672-0.365-5.505-0.486c-1.836-0.124-3.678-0.249-5.526-0.373c-1.93-0.032-3.866-0.064-5.81-0.096l-2.918-0.048
			l-2.723,0.077c-1.898,0.058-3.803,0.115-5.712,0.173c-1.908,0.091-3.815,0.298-5.73,0.441c-3.839,0.223-7.654,0.869-11.506,1.356
			c-1.922,0.269-3.825,0.694-5.747,1.034c-1.918,0.361-3.848,0.687-5.746,1.19c-1.908,0.455-3.821,0.91-5.738,1.367
			c-1.906,0.499-3.792,1.092-5.697,1.634l-2.856,0.832c-0.944,0.307-1.878,0.647-2.819,0.97c-1.878,0.656-3.761,1.314-5.648,1.974
			c-3.692,1.533-7.47,2.911-11.091,4.695l-2.752,1.264l-1.379,0.63l-1.349,0.696c-1.798,0.933-3.599,1.869-5.404,2.806
			c-1.801,0.944-3.528,2.031-5.303,3.041l-2.649,1.544l-2.579,1.669c-6.958,4.345-13.524,9.403-19.853,14.792
			c-12.588,10.868-23.867,23.614-33.155,37.868c-9.312,14.236-16.628,29.96-21.563,46.489l-1.77,6.227
			c-0.522,2.094-0.984,4.205-1.481,6.308c-0.233,1.055-0.514,2.101-0.709,3.164l-0.577,3.193l-0.578,3.194
			c-0.197,1.064-0.396,2.128-0.515,3.205l-0.841,6.444c-0.164,1.077-0.231,2.143-0.318,3.211l-0.259,3.206l-0.262,3.207
			c-0.089,1.068-0.083,2.205-0.13,3.304L138,307.757l0.126,6.51c0.033,1.085,0.013,2.172,0.09,3.254l0.224,3.248l0.224,3.247
			c0.075,1.082,0.131,2.167,0.282,3.241l0.767,6.463c0.105,1.08,0.293,2.148,0.478,3.217l0.542,3.206l0.541,3.207
			c0.184,1.067,0.452,2.119,0.674,3.179c0.473,2.114,0.912,4.236,1.411,6.343l1.703,6.267c4.766,16.638,11.911,32.534,21.098,46.991
			c9.172,14.465,20.353,27.507,32.99,38.591c6.343,5.505,12.936,10.683,19.935,15.147l2.595,1.714l2.667,1.588
			c1.786,1.04,3.526,2.156,5.341,3.131c1.819,0.966,3.635,1.931,5.447,2.894l1.36,0.718l1.391,0.652l2.778,1.304
			c3.663,1.824,7.485,3.24,11.223,4.811c1.91,0.678,3.816,1.354,5.718,2.028c0.953,0.331,1.899,0.681,2.855,0.996l2.893,0.856
			c7.662,2.444,15.487,4.022,23.248,5.355c3.903,0.499,7.792,1.156,11.645,1.384c1.935,0.146,3.835,0.355,5.784,0.451
			c1.966,0.062,3.926,0.123,5.88,0.184l1.464,0.046l0.731,0.022l0.365,0.012c0.137,0.007,0.118-0.003,0.297-0.003l2.877-0.049
			c1.916-0.032,3.826-0.064,5.73-0.096c1.899-0.128,3.793-0.255,5.681-0.382c1.888-0.126,3.772-0.235,5.634-0.501
			c1.867-0.227,3.727-0.451,5.581-0.675c1.856-0.21,3.677-0.608,5.509-0.9l2.736-0.475c0.912-0.149,1.82-0.314,2.714-0.535
			c1.797-0.407,3.586-0.813,5.369-1.218c1.794-0.366,3.539-0.889,5.287-1.379c1.747-0.493,3.487-0.984,5.22-1.474
			c1.708-0.575,3.408-1.147,5.102-1.717c0.847-0.285,1.692-0.569,2.536-0.853c0.845-0.281,1.659-0.639,2.487-0.953
			c13.24-5.078,25.484-11.459,36.42-18.842c10.907-7.425,20.556-15.728,28.89-24.433c8.325-8.719,15.374-17.804,21.199-26.854
			c1.432-2.278,2.912-4.479,4.154-6.77C466.537,398.774,467.178,397.652,467.812,396.541z M349.744,321.904l-0.001,0.366
			l-0.001,0.183v0.091c0.002,0-0.012,0.331-0.011,0.23l-0.081,0.679l-0.16,1.35l-0.159,1.341c-0.03,0.226-0.046,0.439-0.088,0.673
			l-0.159,0.719c-0.217,0.949-0.433,1.893-0.646,2.828c-0.093,0.474-0.236,0.916-0.399,1.346l-0.459,1.297l-0.457,1.281
			l-0.227,0.635l-0.292,0.606c-0.389,0.802-0.774,1.598-1.156,2.387c-0.338,0.808-0.848,1.518-1.278,2.256
			c-0.455,0.725-0.867,1.465-1.345,2.15c-0.507,0.664-1.009,1.322-1.506,1.975l-0.74,0.967c-0.254,0.313-0.544,0.595-0.813,0.891
			c-4.289,4.746-9.108,8.078-13.634,10.383c-4.538,2.301-8.785,3.652-12.343,4.354c-0.89,0.178-1.726,0.379-2.521,0.515
			c-0.566,0.072-1.099,0.141-1.613,0.208c-0.214,0.027-0.433,0.056-0.637,0.082c-0.114,0.015-0.219,0.028-0.33,0.042
			c-0.569,0.073-1.111,0.144-1.606,0.207c-0.331,0.014-0.641,0.026-0.938,0.038c-1.208,0.087-2.427,0.143-3.66,0.143
			c-1.234,0-2.454-0.057-3.663-0.143c-0.295-0.012-0.604-0.024-0.933-0.038c-0.49-0.063-1.026-0.132-1.589-0.204
			c-0.117-0.016-0.227-0.029-0.347-0.045c-0.21-0.027-0.434-0.056-0.653-0.085c-0.511-0.065-1.038-0.134-1.598-0.206
			c-0.796-0.135-1.63-0.337-2.521-0.515c-3.558-0.699-7.804-2.055-12.341-4.355c-4.525-2.306-9.34-5.641-13.627-10.385
			c-0.268-0.296-0.558-0.578-0.813-0.891l-0.739-0.967c-0.497-0.652-0.998-1.311-1.504-1.975c-0.478-0.686-0.889-1.425-1.344-2.149
			c-0.43-0.738-0.939-1.448-1.277-2.255c-0.381-0.789-0.765-1.585-1.152-2.388l-0.292-0.606l-0.227-0.634l-0.456-1.28l-0.458-1.297
			c-0.164-0.432-0.307-0.872-0.396-1.327c-0.211-0.907-0.424-1.821-0.638-2.741c-0.261-0.918-0.28-1.875-0.416-2.829l-0.164-1.442
			l-0.081-0.728l-0.006-0.831c-0.003-0.915-0.007-1.835-0.011-2.761v-0.697l0.082-0.77l0.173-1.555
			c0.156-2.142,0.722-4.071,1.178-6.116c0.305-0.991,0.672-1.97,1.015-2.967c0.183-0.493,0.334-1.006,0.56-1.482l0.69-1.43
			l0.701-1.438c0.227-0.486,0.472-0.963,0.769-1.408c0.567-0.912,1.136-1.828,1.707-2.748c0.599-0.901,1.297-1.731,1.953-2.605
			c0.337-0.429,0.66-0.874,1.015-1.291l1.12-1.201c2.946-3.271,6.503-6.026,10.356-8.307c7.701-4.661,16.856-6.89,25.924-7.014
			l3.325,0.157l1.562,0.085l1.767,0.232c1.171,0.167,2.369,0.305,3.511,0.516c1.109,0.249,2.211,0.53,3.313,0.797
			c4.363,1.216,8.629,2.842,12.457,5.207c3.864,2.268,7.41,5.042,10.37,8.301l1.12,1.202c0.354,0.417,0.678,0.863,1.015,1.292
			c0.656,0.875,1.354,1.706,1.954,2.607c0.571,0.92,1.141,1.837,1.707,2.75c0.297,0.446,0.543,0.922,0.77,1.409l0.7,1.439
			l0.691,1.432c0.226,0.477,0.376,0.989,0.564,1.48c0.343,0.998,0.709,1.978,1.015,2.97c0.456,2.038,1.025,4.011,1.165,6.045
			l0.171,1.502l0.083,0.745l0.005,0.75C349.744,319.933,349.744,320.922,349.744,321.904z"/>
	</g>
</g>
<g>
	<g>
		<path fill="#F7B0C1" d="M474.727,338.933c2.043-8.4,3.345-16.256,4.06-23.392c1.467-14.277,0.743-25.63-0.701-33.14
			c-0.7-3.765-1.573-6.569-2.234-8.421c-0.344-0.917-0.61-1.605-0.82-2.071c-0.192-0.448-0.291-0.679-0.298-0.695
			c-0.001-0.002-1.715-3.732-4.93-10.73c-3.261-6.97-7.771-17.351-14.665-29.916c-3.444-6.273-7.539-13.075-12.743-19.892
			c-5.2-6.805-11.524-13.62-19.289-19.615c-3.872-3-8.108-5.787-12.649-8.294c-1.146-0.602-2.248-1.223-3.444-1.821
			c-1.201-0.588-2.41-1.181-3.627-1.778c-2.511-1.21-5.035-2.49-7.539-3.879c-5.026-2.751-9.951-5.93-14.916-8.912
			c-4.974-2.98-10.113-5.636-15.669-7.79c-5.473-2.14-11.464-4.078-17.388-5.373c-5.985-1.313-12.131-1.864-18.529-1.826
			c-6.414-0.012-13.107,0.77-20.672,0.23c-1.003-0.054-1.83-0.162-2.683-0.261l-2.462-0.292c-1.472-0.142-3.045-0.175-4.649-0.139
			c-3.215,0.075-6.558,0.425-9.92,0.91c-6.736,0.984-13.585,2.517-20.441,4.36c-6.856,1.857-13.746,4.003-20.601,6.466
			c-6.855,2.459-13.684,5.224-20.386,8.353c-6.688,3.136-13.311,6.58-19.452,10.648c-3.061,2.034-6.004,4.222-8.639,6.614
			c-2.516,2.346-5.342,5.422-8.198,8.122c-5.686,5.543-11.757,10.865-17.721,15.966c-2.957,2.575-5.839,5.137-8.485,7.85
			c-2.638,2.719-5.054,5.625-7.316,8.705c-1.097,1.571-2.223,3.133-3.215,4.753c-0.511,0.82-1.032,1.569-1.539,2.447l-1.524,2.605
			l-0.763,1.303l-0.622,1.17c-0.457,0.811-0.822,1.669-1.237,2.504c-0.744,1.71-1.456,3.442-2.021,5.241
			c-4.787,14.369-2.958,31.153-7,47.897c-0.483,2.085-1.097,4.151-1.754,6.203c-0.355,1.019-0.73,2.135-1.104,3.081l-0.563,1.43
			l-0.482,1.271c-1.053,3.133-1.137,6.883-0.718,10.643c0.428,3.779,1.33,7.617,2.455,11.419c1.13,3.806,2.491,7.587,3.971,11.34
			c2.975,7.509,6.419,14.9,9.934,22.296c1.76,3.719,3.519,7.436,5.276,11.149c1.733,3.755,3.449,7.527,4.934,11.535
			c0.365,1.008,0.72,2.026,1.038,3.088c0.158,0.541,0.334,1.158,0.443,1.619l0.377,1.45c0.441,1.851,1.107,3.605,1.811,5.334
			c1.522,3.4,3.571,6.521,6.19,9.23c5.203,5.472,12.163,9.504,19.089,13.572c6.974,4.039,14.049,8.145,20.741,12.79
			c3.354,2.322,6.598,4.751,9.772,7.322c1.618,1.292,3.107,2.59,4.616,3.883c1.498,1.285,2.924,2.456,4.483,3.569
			c6.155,4.462,13.127,7.737,20.366,10.064c7.244,2.342,14.753,3.784,22.276,4.608c7.528,0.826,15.078,1.052,22.555,0.872
			c3.739-0.089,7.446-0.29,11.171-0.563c3.727-0.267,7.435-0.528,11.116-0.847c7.363-0.618,14.64-1.313,21.788-2.225
			c7.146-0.908,14.182-1.982,20.984-3.502c3.401-0.753,6.748-1.614,9.968-2.699c3.227-1.07,6.316-2.367,9.178-4.007
			c2.881-1.604,5.482-3.674,8.383-5.612c2.884-1.957,6.085-3.514,9.316-4.638c0.815-0.262,1.655-0.571,2.445-0.788
			c0.801-0.229,1.6-0.457,2.396-0.685c0.774-0.221,1.547-0.44,2.317-0.66c0.757-0.256,1.513-0.512,2.267-0.767
			c2.989-1.081,5.847-2.418,8.47-4.073c2.622-1.654,5.012-3.616,7.086-5.858c2.079-2.239,3.87-4.718,5.48-7.292
			c3.214-5.16,5.743-10.679,8.801-15.777c3.024-5.118,6.523-9.838,10.644-13.786c8.709-7.147,14.266-16.422,18.425-25.458
			C469.868,356.287,472.664,347.321,474.727,338.933z M349.936,305.458l-0.002,0.089c-0.006,0.208-0.006,0.104-0.009,0.172
			l-0.016,0.16l-0.031,0.321l-0.13,1.29c-0.279,1.976-0.723,3.715-1.334,5.411c-1.249,3.363-3.07,6.308-5.131,8.823
			c-2.063,2.522-4.354,4.648-6.677,6.486c-4.678,3.655-9.511,6.113-13.903,7.896c-4.407,1.768-8.418,2.811-11.748,3.443
			c-3.338,0.609-5.993,0.883-7.809,0.947c-0.905,0.067-1.603,0.04-2.071,0.06c-0.469,0.008-0.711,0.012-0.711,0.012
			s-0.242-0.004-0.711-0.011c-0.468-0.019-1.166,0.009-2.071-0.06c-1.814-0.068-4.473-0.328-7.803-0.991
			c-3.319-0.688-7.316-1.843-11.6-3.931c-4.267-2.084-8.848-5.125-12.864-9.578c-1.988-2.232-3.82-4.817-5.287-7.764
			c-1.461-2.945-2.551-6.255-3.021-9.801c-0.075-0.441-0.113-0.888-0.15-1.336c-0.033-0.472-0.092-0.849-0.102-1.405
			c-0.026-0.843-0.068-1.666-0.012-2.667c0.068-1.913,0.294-3.745,0.716-5.622c0.793-3.739,2.326-7.423,4.46-10.796
			c4.267-6.77,10.896-12.252,18.54-15.582c7.633-3.378,16.286-4.667,24.629-3.92c8.341,0.723,16.407,3.233,23.575,7.165
			c7.118,3.962,13.495,9.425,17.513,16.398c0.989,1.742,1.795,3.578,2.437,5.448c0.628,1.88,1.018,3.819,1.229,5.744
			c0.073,0.969,0.143,1.927,0.104,2.884L349.936,305.458z"/>
	</g>
</g>
<g>
	<g>
		<path fill="#27AAE1" d="M202.411,242.665c0.984-4.284,2.318-8.446,4.248-12.403c1.407-2.885-2.904-5.421-4.317-2.523
			c-2.119,4.345-3.67,8.888-4.752,13.597C196.869,244.474,201.689,245.807,202.411,242.665L202.411,242.665z"/>
	</g>
</g>
<g>
	<g>
		<path fill="#27AAE1" d="M251.835,190.911c3.202,0.533,6.412,1.049,9.665,1.089c3.226,0.041,3.222-4.96,0-5
			c-2.813-0.035-5.565-0.45-8.335-0.911C250.012,185.565,248.66,190.382,251.835,190.911L251.835,190.911z"/>
	</g>
</g>
<g>
	<g>
		<path fill="#27AAE1" d="M275.5,222.5c-0.118,3.641-1.736,6.954-3.159,10.238c-1.267,2.927,3.039,5.476,4.317,2.523
			c1.79-4.134,3.693-8.179,3.841-12.762C280.604,219.274,275.604,219.284,275.5,222.5L275.5,222.5z"/>
	</g>
</g>
<g>
	<g>
		<path fill="#27AAE1" d="M327,197c3.651-0.485,7.322-0.499,11-0.5c3.225,0,3.225-5,0-5c-3.678,0.001-7.349,0.015-11,0.5
			C323.852,192.418,323.812,197.424,327,197L327,197z"/>
	</g>
</g>
<g>
	<g>
		<path fill="#27AAE1" d="M361.5,228c0,2.667,0,5.333,0,8c0,3.224,5,3.224,5,0c0-2.667,0-5.333,0-8
			C366.5,224.776,361.5,224.776,361.5,228L361.5,228z"/>
	</g>
</g>
<g>
	<g>
		<path fill="#27AAE1" d="M402.165,193.911c3.436-0.49,6.86-0.88,10.335-0.911c3.223-0.028,3.226-5.028,0-5
			c-3.923,0.035-7.787,0.537-11.665,1.089C397.654,189.543,399.013,194.36,402.165,193.911L402.165,193.911z"/>
	</g>
</g>
<g>
	<g>
		<path fill="#27AAE1" d="M441.732,244.768c3.019,3.202,3.927,7.651,7.5,10.5c2.493,1.989,6.057-1.525,3.535-3.535
			c-3.486-2.781-4.488-7.305-7.5-10.5C443.052,238.882,439.522,242.424,441.732,244.768L441.732,244.768z"/>
	</g>
</g>
<g>
	<g>
		<path fill="#27AAE1" d="M405.342,281.262c1.064,1.628,1.935,3.373,3,5c0.744,1.138,2.199,1.612,3.42,0.897
			c1.131-0.662,1.644-2.279,0.896-3.42c-1.064-1.628-1.935-3.373-3-5c-0.744-1.138-2.199-1.612-3.42-0.897
			C405.107,278.503,404.595,280.12,405.342,281.262L405.342,281.262z"/>
	</g>
</g>
<g>
	<g>
		<path fill="#27AAE1" d="M447.738,322.158c3.265,1.867,6.572,3.726,9.494,6.109c2.476,2.02,6.035-1.496,3.535-3.535
			c-3.268-2.666-6.853-4.803-10.506-6.891C447.458,316.238,444.94,320.56,447.738,322.158L447.738,322.158z"/>
	</g>
</g>
<g>
	<g>
		<path fill="#27AAE1" d="M406.835,366.411c1.5,0.5,3,1,4.5,1.5c1.294,0.431,2.729-0.485,3.076-1.746
			c0.376-1.367-0.455-2.646-1.746-3.076c-1.5-0.5-3-1-4.5-1.5c-1.294-0.431-2.729,0.485-3.076,1.746
			C404.713,364.702,405.544,365.98,406.835,366.411L406.835,366.411z"/>
	</g>
</g>
<g>
	<g>
		<path fill="#27AAE1" d="M350.732,354.732c-1.838,2.216-4.173,3.901-6.897,4.856c-3.021,1.061-1.721,5.892,1.33,4.822
			c3.511-1.232,6.714-3.264,9.103-6.144C356.31,355.806,352.793,352.248,350.732,354.732L350.732,354.732z"/>
	</g>
</g>
<g>
	<g>
		<path fill="#27AAE1" d="M173.5,289c-2.58,0.046-4.949,0.726-7.262,1.841c-1.227,0.592-1.544,2.316-0.897,3.42
			c0.729,1.244,2.193,1.489,3.42,0.897c1.5-0.723,3.074-1.129,4.738-1.159C176.721,293.942,176.726,288.942,173.5,289L173.5,289z"/>
	</g>
</g>
<g>
	<g>
		<path fill="#27AAE1" d="M229.738,285.659c1.635,1.247,3.143,2.773,4.103,4.603c1.499,2.856,5.814,0.329,4.317-2.523
			c-1.372-2.615-3.581-4.63-5.897-6.397c-1.086-0.829-2.795-0.171-3.42,0.897C228.089,283.523,228.657,284.834,229.738,285.659
			L229.738,285.659z"/>
	</g>
</g>
<g>
	<g>
		<path fill="#27AAE1" d="M198.232,345.732c-2.543,2.628-4.268,5.761-5.891,9.006c-1.438,2.874,2.874,5.407,4.317,2.523
			c1.428-2.854,2.871-5.681,5.109-7.994C204.01,346.951,200.478,343.412,198.232,345.732L198.232,345.732z"/>
	</g>
</g>
<g>
	<g>
		<path fill="#27AAE1" d="M261.335,359.911c3.423,0.609,6.201,2.961,9.5,4c3.084,0.971,4.394-3.857,1.329-4.822
			c-3.311-1.042-6.021-3.38-9.5-4C259.512,354.527,258.165,359.346,261.335,359.911L261.335,359.911z"/>
	</g>
</g>
<g>
	<g>
		<path fill="#27AAE1" d="M237.341,394.238c-1.218,1.623-2.483,3.353-4.103,4.604c-1.077,0.83-1.652,2.13-0.897,3.42
			c0.623,1.063,2.338,1.732,3.42,0.896c2.355-1.817,4.121-4.029,5.897-6.396c0.82-1.093,0.178-2.791-0.897-3.42
			C239.484,392.593,238.157,393.15,237.341,394.238L237.341,394.238z"/>
	</g>
</g>
<g>
	<g>
		<path fill="#27AAE1" d="M312.658,426.738c-1.496-1.969-3.144-3.759-4.891-5.506c-2.281-2.282-5.816,1.253-3.535,3.535
			c1.433,1.434,2.88,2.877,4.109,4.494c0.822,1.083,2.137,1.648,3.42,0.896C312.831,429.532,313.485,427.826,312.658,426.738
			L312.658,426.738z"/>
	</g>
</g>
<g>
	<g>
		<path fill="#27AAE1" d="M364.732,406.768c1.607,1.705,2.223,3.932,2.268,6.232c0.063,3.22,5.063,3.227,5,0
			c-0.071-3.641-1.207-7.091-3.732-9.768C366.051,400.883,362.521,404.425,364.732,406.768L364.732,406.768z"/>
	</g>
</g>
<g>
	<g>
		<path fill="#F9ED32" d="M320,226.5c3,0,6,0,9,0c3.225,0,3.225-5,0-5c-3,0-6,0-9,0C316.775,221.5,316.775,226.5,320,226.5
			L320,226.5z"/>
	</g>
</g>
<g>
	<g>
		<path fill="#F9ED32" d="M298.732,163.732c-3.058,3.157-5.198,7.063-8.5,10c-2.414,2.147,1.135,5.67,3.535,3.535
			c3.305-2.939,5.443-6.843,8.5-10C304.511,164.952,300.979,161.413,298.732,163.732L298.732,163.732z"/>
	</g>
</g>
<g>
	<g>
		<path fill="#F9ED32" d="M222.732,245.268c1.78,1.4,3.001,3.314,3.857,5.397c0.517,1.26,1.641,2.141,3.075,1.746
			c1.194-0.329,2.265-1.813,1.746-3.075c-1.171-2.852-2.674-5.663-5.143-7.603c-1.07-0.842-2.486-1.049-3.535,0
			C221.855,242.609,221.659,244.424,222.732,245.268L222.732,245.268z"/>
	</g>
</g>
<g>
	<g>
		<path fill="#F9ED32" d="M200.768,317.732c-2.74-2.128-5.673-3.531-9.103-4.144c-3.152-0.562-4.5,4.256-1.329,4.822
			c2.519,0.449,4.855,1.271,6.897,2.856c1.075,0.835,2.482,1.054,3.535,0C201.641,320.395,201.846,318.569,200.768,317.732
			L200.768,317.732z"/>
	</g>
</g>
<g>
	<g>
		<path fill="#F9ED32" d="M221.341,373.762c0.821,1.297,1.135,2.715,1.159,4.238c0.05,3.221,5.05,3.226,5,0
			c-0.037-2.37-0.563-4.741-1.841-6.762C223.94,368.522,219.611,371.028,221.341,373.762L221.341,373.762z"/>
	</g>
</g>
<g>
	<g>
		<path fill="#F9ED32" d="M296.5,394c3.667,0,7.333,0,11,0c3.225,0,3.225-5,0-5c-3.667,0-7.333,0-11,0
			C293.276,389,293.276,394,296.5,394L296.5,394z"/>
	</g>
</g>
<g>
	<g>
		<path fill="#F9ED32" d="M393.768,328.232c-2.793-3.289-5.401-6.794-6.856-10.897c-1.071-3.016-5.903-1.717-4.822,1.33
			c1.761,4.959,4.763,9.123,8.144,13.103C392.323,334.229,395.842,330.674,393.768,328.232L393.768,328.232z"/>
	</g>
</g>
<g>
	<g>
		<path fill="#F9ED32" d="M398.738,395.658c-0.344-0.241,0.287,0.291,0.361,0.375c-0.169-0.212-0.175-0.197-0.019,0.042
			c-0.091-0.263-0.088-0.253,0.008,0.027c0.047,0.151,0.084,0.306,0.112,0.462c-0.036-0.252-0.041-0.217-0.016,0.104
			c0.021,0.438-0.027,0.797-0.097,1.167c-0.247,1.339,0.35,2.691,1.746,3.076c1.229,0.337,2.827-0.405,3.076-1.746
			c0.58-3.136,0.074-5.908-2.649-7.823c-1.116-0.786-2.775-0.205-3.42,0.896C397.108,393.488,397.626,394.876,398.738,395.658
			L398.738,395.658z"/>
	</g>
</g>
<g>
	<g>
		<path fill="#F9ED32" d="M442.835,293.911c3.164,0.521,6.337,0.979,9.5,1.5c3.153,0.52,4.505-4.298,1.33-4.821
			c-3.164-0.521-6.337-0.979-9.5-1.5C441.012,288.57,439.66,293.387,442.835,293.911L442.835,293.911z"/>
	</g>
</g>
<g>
	<g>
		<path fill="#F9ED32" d="M407.238,241.841c-2.406,1.036-5.646-0.363-8.073-0.752c-3.153-0.505-4.507,4.312-1.33,4.821
			c4.141,0.664,7.873,1.994,11.927,0.248C412.716,244.887,410.166,240.581,407.238,241.841L407.238,241.841z"/>
	</g>
</g>
<g>
	<g>
		<path fill="#F9ED32" d="M365.089,174.665c0.988,3.096,1.473,6.302,2,9.5c0.524,3.176,5.343,1.824,4.822-1.329
			c-0.528-3.198-1.013-6.404-2-9.5C368.935,170.276,364.106,171.584,365.089,174.665L365.089,174.665z"/>
	</g>
</g>
<g>
	<g>
		<path fill="#F9ED32" d="M216.762,205.841c-3.012-1.552-5.697-3.613-8.5-5.5c-2.683-1.806-5.183,2.527-2.523,4.317
			c2.803,1.887,5.488,3.948,8.5,5.5C217.099,211.633,219.629,207.319,216.762,205.841L216.762,205.841z"/>
	</g>
</g>
</svg>
